<?xml version="1.0" encoding="utf-8"?>
<!-- Generator: Adobe Illustrator 21.1.0, SVG Export Plug-In . SVG Version: 6.00 Build 0)  -->
<svg version="1.1" id="Ebene_1" xmlns="http://www.w3.org/2000/svg" xmlns:xlink="http://www.w3.org/1999/xlink" x="0px" y="0px"
	 viewBox="0 0 50 50" style="enable-background:new 0 0 50 50;" xml:space="preserve">
<style type="text/css">
	.st0{fill:#1D1D1B;}
</style>
<g>
	<path class="st0" d="M42.5,30.3H7.6c-2.5,0-4.4-1.5-4.4-3.5v-3.7c0-2,1.9-3.5,4.4-3.5h34.8c2.5,0,4.4,1.5,4.4,3.5v3.7
		C46.8,28.8,44.8,30.3,42.5,30.3z"/>
	<path class="st0" d="M42.5,14.3H7.6c-2.5,0-4.4-1.6-4.4-3.5V7.2c0-2,1.9-3.5,4.4-3.5h34.8c2.5,0,4.4,1.6,4.4,3.5v3.7
		C46.8,12.8,44.8,14.3,42.5,14.3z"/>
	<path class="st0" d="M42.5,46.4H7.6c-2.5,0-4.4-1.5-4.4-3.5v-3.7c0-2,1.9-3.5,4.4-3.5h34.8c2.5,0,4.4,1.5,4.4,3.5v3.7
		C46.8,44.8,44.8,46.4,42.5,46.4z"/>
</g>
</svg>
