<?xml version="1.0" encoding="utf-8"?>
<!-- Generator: Adobe Illustrator 21.1.0, SVG Export Plug-In . SVG Version: 6.00 Build 0)  -->
<svg version="1.1" id="Ebene_1" xmlns="http://www.w3.org/2000/svg" xmlns:xlink="http://www.w3.org/1999/xlink" x="0px" y="0px"
	 viewBox="0 0 50 50" style="enable-background:new 0 0 50 50;" xml:space="preserve">
<style type="text/css">
	.st0{fill:#FFFFFF;}
</style>
<path class="st0" d="M32.1,25l10.7-10.7c1.6-1.6,1.6-4.1,0-5.7l-1.4-1.4c-1.6-1.6-4.1-1.6-5.7,0L25,17.9L14.3,7.2
	c-1.6-1.6-4.1-1.6-5.7,0L7.2,8.6c-1.6,1.6-1.6,4.1,0,5.7L17.9,25L7.2,35.7c-1.6,1.6-1.6,4.1,0,5.7l1.4,1.4c1.6,1.6,4.1,1.6,5.7,0
	L25,32.1l10.7,10.7c1.6,1.6,4.1,1.6,5.7,0l1.4-1.4c1.6-1.6,1.6-4.1,0-5.7L32.1,25z"/>
</svg>
