<?xml version="1.0" encoding="utf-8"?>
<!-- Generator: Adobe Illustrator 21.1.0, SVG Export Plug-In . SVG Version: 6.00 Build 0)  -->
<svg version="1.1" id="Ebene_1" xmlns="http://www.w3.org/2000/svg" xmlns:xlink="http://www.w3.org/1999/xlink" x="0px" y="0px"
	 viewBox="0 0 50 50" style="enable-background:new 0 0 50 50;" xml:space="preserve">
<style type="text/css">
	.st0{fill:#FFFFFF;}
</style>
<g>
	<g>
		<path class="st0" d="M31.7,7.5H18.3c-5.9,0-10.8,4.8-10.8,10.8v13.4c0,5.9,4.8,10.8,10.8,10.8h13.4c5.9,0,10.8-4.8,10.8-10.8V18.3
			C42.5,12.4,37.6,7.5,31.7,7.5z M39.1,30.5c0,4.8-3.9,8.7-8.7,8.7H19.7c-4.8,0-8.7-3.9-8.7-8.7V19.7c0-4.8,3.9-8.7,8.7-8.7h10.8
			c4.8,0,8.7,3.9,8.7,8.7V30.5z"/>
		<path class="st0" d="M25.4,15.9c-5,0-9.2,4.1-9.2,9.2c0,5,4.1,9.2,9.2,9.2c5,0,9.2-4.1,9.2-9.2S30.6,15.9,25.4,15.9z M25.4,30.6
			c-3.1,0-5.6-2.5-5.6-5.6s2.5-5.6,5.6-5.6S31,21.9,31,25S28.5,30.6,25.4,30.6z"/>
		<circle class="st0" cx="34" cy="15.8" r="2.4"/>
	</g>
</g>
</svg>
