<?xml version="1.0" encoding="utf-8"?>
<!-- Generator: Adobe Illustrator 21.1.0, SVG Export Plug-In . SVG Version: 6.00 Build 0)  -->
<svg version="1.1" id="Ebene_1" xmlns="http://www.w3.org/2000/svg" xmlns:xlink="http://www.w3.org/1999/xlink" x="0px" y="0px"
	 viewBox="0 0 30 30" style="enable-background:new 0 0 30 30;" xml:space="preserve">
<style type="text/css">
	.st0{fill:#FFFFFF;}
</style>
<g>
	<path class="st0" d="M15,21.6L15,21.6c-0.9,0-1.5-0.6-1.5-1.5V9.9c0-0.8,0.6-1.5,1.5-1.5H15c0.8,0,1.5,0.6,1.5,1.5v10.2
		C16.5,20.9,15.9,21.6,15,21.6z"/>
	<path class="st0" d="M21.6,15L21.6,15c0,0.9-0.6,1.5-1.5,1.5H9.9c-0.8,0-1.5-0.6-1.5-1.5V15c0-0.8,0.6-1.5,1.5-1.5h10.2
		C20.9,13.5,21.6,14.1,21.6,15z"/>
</g>
</svg>
