<?xml version="1.0" encoding="utf-8"?>
<!-- Generator: Adobe Illustrator 21.1.0, SVG Export Plug-In . SVG Version: 6.00 Build 0)  -->
<svg version="1.1" id="Ebene_1" xmlns="http://www.w3.org/2000/svg" xmlns:xlink="http://www.w3.org/1999/xlink" x="0px" y="0px"
	 viewBox="0 0 300 50" style="enable-background:new 0 0 300 50;" xml:space="preserve">
<style type="text/css">
	.st0{stroke:#000000;stroke-width:0.5;stroke-miterlimit:10;}
	.st1{fill:none;stroke:#000000;stroke-width:2;stroke-miterlimit:10;}
	.st2{fill:none;stroke:#E6332A;stroke-width:2;stroke-miterlimit:10;}
	.st3{fill:#E6332A;}
</style>
<g>
	<g>
		<path d="M17.2,19.5c-0.5-0.6-1.1-1.1-1.9-1.4c-0.8-0.4-1.5-0.5-2.2-0.5c-0.4,0-0.7,0-1.1,0.1c-0.4,0.1-0.7,0.2-1,0.4
			c-0.3,0.2-0.6,0.4-0.8,0.7C10.1,19,10,19.4,10,19.8c0,0.4,0.1,0.7,0.2,1c0.2,0.3,0.4,0.5,0.7,0.7c0.3,0.2,0.7,0.4,1.1,0.5
			c0.4,0.2,0.9,0.3,1.5,0.5c0.8,0.3,1.6,0.5,2.4,0.9c0.8,0.3,1.6,0.7,2.3,1.2c0.7,0.5,1.3,1.2,1.7,1.9c0.5,0.8,0.7,1.7,0.7,2.9
			c0,1.3-0.2,2.4-0.7,3.4c-0.5,1-1.1,1.7-1.9,2.4c-0.8,0.6-1.8,1.1-2.8,1.4C14,36.8,12.9,37,11.8,37c-1.6,0-3.2-0.3-4.7-0.9
			c-1.5-0.6-2.8-1.4-3.8-2.4L6.9,30c0.6,0.7,1.3,1.3,2.2,1.7c0.9,0.5,1.8,0.7,2.7,0.7c0.4,0,0.8,0,1.2-0.1c0.4-0.1,0.7-0.2,1-0.4
			c0.3-0.2,0.5-0.5,0.7-0.8c0.2-0.3,0.3-0.7,0.3-1.2c0-0.4-0.1-0.8-0.3-1.1c-0.2-0.3-0.5-0.6-0.9-0.8c-0.4-0.2-0.9-0.5-1.5-0.7
			c-0.6-0.2-1.3-0.4-2-0.7c-0.7-0.2-1.4-0.5-2.1-0.8c-0.7-0.3-1.3-0.7-1.9-1.2c-0.5-0.5-1-1.1-1.3-1.8c-0.3-0.7-0.5-1.6-0.5-2.6
			c0-1.3,0.3-2.4,0.8-3.3c0.5-0.9,1.2-1.6,2-2.2c0.8-0.6,1.8-1,2.8-1.3c1.1-0.3,2.1-0.4,3.2-0.4c1.3,0,2.6,0.2,3.9,0.7
			c1.3,0.5,2.5,1.2,3.5,2.1L17.2,19.5z"/>
		<path d="M33.6,18.3v18.1H28V18.3h-6.4v-4.7H40v4.7H33.6z"/>
		<path d="M56,36.4l-1.8-4.5h-8.8l-1.7,4.5h-6l9.6-22.8h5.3l9.5,22.8H56z M49.9,19.7L47,27.5h5.7L49.9,19.7z"/>
		<path d="M76.3,36.4l-5-9.1h-1.9v9.1h-5.4V13.6h8.7c1.1,0,2.2,0.1,3.2,0.3c1,0.2,2,0.6,2.8,1.1c0.8,0.5,1.5,1.2,2,2.1
			c0.5,0.9,0.7,2,0.7,3.3c0,1.5-0.4,2.8-1.3,3.9c-0.8,1.1-2,1.8-3.5,2.3l6,9.8H76.3z M76.1,20.6c0-0.5-0.1-1-0.3-1.3
			c-0.2-0.3-0.5-0.6-0.9-0.8c-0.4-0.2-0.8-0.3-1.2-0.4c-0.4-0.1-0.9-0.1-1.3-0.1h-2.9v5.3H72c0.5,0,0.9,0,1.4-0.1
			c0.5-0.1,0.9-0.2,1.3-0.4c0.4-0.2,0.7-0.5,1-0.8C75.9,21.6,76.1,21.1,76.1,20.6z"/>
		<path d="M94.8,18.3v18.1h-5.5V18.3h-6.4v-4.7h18.4v4.7H94.8z"/>
		<path d="M122.4,31.5c-0.5,1.1-1.1,2.1-2,2.9c-0.9,0.8-1.9,1.4-3.1,1.9c-1.2,0.5-2.6,0.7-4,0.7c-1.5,0-2.9-0.2-4.1-0.7
			c-1.2-0.5-2.2-1.1-3.1-1.9c-0.8-0.8-1.5-1.8-1.9-2.9s-0.7-2.4-0.7-3.8V13.6h5.5v13.8c0,0.6,0.1,1.2,0.2,1.8
			c0.2,0.6,0.4,1.1,0.7,1.5c0.3,0.4,0.8,0.8,1.3,1c0.5,0.3,1.2,0.4,2,0.4c0.8,0,1.4-0.1,2-0.4c0.5-0.3,1-0.6,1.3-1
			c0.3-0.4,0.6-0.9,0.7-1.5c0.1-0.6,0.2-1.1,0.2-1.8V13.6h5.5v14.2C123.1,29.2,122.9,30.4,122.4,31.5z"/>
		<path d="M144.8,20.6c0,1.3-0.2,2.5-0.7,3.4c-0.5,0.9-1.2,1.6-2,2.2c-0.8,0.6-1.8,1-2.9,1.2c-1.1,0.3-2.2,0.4-3.4,0.4h-2.7v8.6
			h-5.5V13.6h8.4c1.2,0,2.4,0.1,3.5,0.4c1.1,0.2,2,0.6,2.8,1.2c0.8,0.5,1.4,1.3,1.9,2.2S144.8,19.3,144.8,20.6z M139.3,20.6
			c0-0.5-0.1-1-0.3-1.3c-0.2-0.3-0.5-0.6-0.9-0.8c-0.4-0.2-0.8-0.3-1.2-0.4c-0.5-0.1-0.9-0.1-1.4-0.1h-2.4v5.4h2.3
			c0.5,0,1,0,1.5-0.1c0.5-0.1,0.9-0.2,1.3-0.5c0.4-0.2,0.7-0.5,0.9-0.9C139.2,21.6,139.3,21.2,139.3,20.6z"/>
		<path d="M160.2,19.5c-0.5-0.6-1.1-1.1-1.9-1.4c-0.8-0.4-1.5-0.5-2.2-0.5c-0.4,0-0.7,0-1.1,0.1c-0.4,0.1-0.7,0.2-1,0.4
			c-0.3,0.2-0.6,0.4-0.8,0.7c-0.2,0.3-0.3,0.7-0.3,1.1c0,0.4,0.1,0.7,0.2,1c0.2,0.3,0.4,0.5,0.7,0.7c0.3,0.2,0.7,0.4,1.1,0.5
			c0.4,0.2,0.9,0.3,1.5,0.5c0.8,0.3,1.6,0.5,2.4,0.9c0.8,0.3,1.6,0.7,2.3,1.2c0.7,0.5,1.3,1.2,1.7,1.9s0.7,1.7,0.7,2.9
			c0,1.3-0.2,2.4-0.7,3.4c-0.5,1-1.1,1.7-1.9,2.4c-0.8,0.6-1.8,1.1-2.8,1.4c-1.1,0.3-2.1,0.5-3.3,0.5c-1.6,0-3.2-0.3-4.7-0.9
			c-1.5-0.6-2.8-1.4-3.8-2.4l3.6-3.7c0.6,0.7,1.3,1.3,2.2,1.7c0.9,0.5,1.8,0.7,2.7,0.7c0.4,0,0.8,0,1.2-0.1c0.4-0.1,0.7-0.2,1-0.4
			c0.3-0.2,0.5-0.5,0.7-0.8c0.2-0.3,0.3-0.7,0.3-1.2c0-0.4-0.1-0.8-0.3-1.1c-0.2-0.3-0.5-0.6-0.9-0.8c-0.4-0.2-0.9-0.5-1.5-0.7
			c-0.6-0.2-1.3-0.4-2-0.7c-0.7-0.2-1.4-0.5-2.1-0.8c-0.7-0.3-1.3-0.7-1.9-1.2c-0.5-0.5-1-1.1-1.3-1.8c-0.3-0.7-0.5-1.6-0.5-2.6
			c0-1.3,0.3-2.4,0.8-3.3c0.5-0.9,1.2-1.6,2-2.2c0.8-0.6,1.8-1,2.8-1.3c1.1-0.3,2.1-0.4,3.2-0.4c1.3,0,2.6,0.2,3.9,0.7
			c1.3,0.5,2.5,1.2,3.5,2.1L160.2,19.5z"/>
	</g>
	<g>
		<polygon class="st0" points="183.2,28.3 184,25.9 185.8,29.1 183.6,38.3 184.2,29.1 		"/>
		<polygon class="st0" points="175.2,28.3 174.4,25.9 172.6,29.1 174.8,38.3 174.2,29.1 		"/>
		<circle class="st1" cx="179.2" cy="20.1" r="2.7"/>
		<path class="st2" d="M172.7,36.3c-0.9,2.6,0,4,2.6,4.3c0.8,3.5,2.5,4.4,5.1,2.5c3.1,0.6,4.5-0.6,4.1-3.9c2.3-1.1,2.6-2.7,1.3-4.7"
			/>
		<path class="st1" d="M175.9,29.9c2.2,0.8,4.4,0.8,6.6,0c4.4-9.9,3.1-17.8-3.3-24C172.9,11.9,171.5,20.1,175.9,29.9z"/>
	</g>
	<g>
		<path class="st3" d="M195.2,13.7h6.8c0.9,0,1.7,0.1,2.6,0.3s1.7,0.5,2.4,0.9c0.7,0.4,1.3,1,1.7,1.8c0.4,0.7,0.7,1.7,0.7,2.8
			c0,1.2-0.4,2.2-1.1,3.1c-0.7,0.9-1.7,1.5-2.9,1.7v0.1c1.5,0.2,2.7,0.7,3.7,1.7c1,1,1.5,2.3,1.5,4c0,0.9-0.2,1.8-0.6,2.6
			c-0.4,0.8-1,1.4-1.7,2c-0.7,0.5-1.6,1-2.7,1.3c-1,0.3-2.2,0.4-3.5,0.4h-6.7V13.7z M197.5,23.6h4.6c0.6,0,1.1-0.1,1.7-0.2
			c0.6-0.1,1.1-0.3,1.6-0.7c0.5-0.3,0.8-0.7,1.1-1.2c0.3-0.5,0.4-1.1,0.4-1.9c0-0.7-0.1-1.3-0.4-1.8c-0.3-0.5-0.7-0.9-1.2-1.2
			c-0.5-0.3-1.1-0.5-1.7-0.7s-1.4-0.2-2.1-0.2h-4V23.6z M197.5,34.3h4.3c0.8,0,1.6-0.1,2.4-0.2c0.8-0.2,1.4-0.4,2-0.8
			c0.6-0.4,1-0.8,1.4-1.4c0.3-0.6,0.5-1.2,0.5-2c0-1.5-0.5-2.6-1.5-3.3c-1-0.7-2.4-1.1-4.3-1.1h-4.7V34.3z"/>
		<path class="st3" d="M217.8,34.3H230v2h-14.4V13.7h14v2h-11.7v7.8h11v2h-11V34.3z"/>
		<path class="st3" d="M236.8,36.3h-2.3V13.7h6.7c1.1,0,2.1,0.1,3.1,0.3c0.9,0.2,1.8,0.6,2.5,1s1.2,1.1,1.6,1.9s0.6,1.7,0.6,2.8
			c0,0.8-0.1,1.6-0.4,2.3c-0.3,0.7-0.7,1.3-1.2,1.8c-0.5,0.5-1.1,0.9-1.8,1.2s-1.5,0.5-2.3,0.6l6.6,10.8h-2.8l-6.3-10.6h-3.8V36.3z
			 M236.8,23.8h4c1.9,0,3.3-0.3,4.3-1s1.5-1.7,1.5-3c0-0.7-0.1-1.4-0.4-1.9c-0.3-0.5-0.7-0.9-1.2-1.2c-0.5-0.3-1.1-0.6-1.8-0.7
			c-0.7-0.1-1.5-0.2-2.3-0.2h-4.1V23.8z"/>
		<path class="st3" d="M255.9,34.3h10.6v2h-12.9V13.7h2.3V34.3z"/>
		<path class="st3" d="M272.3,36.3H270V13.7h2.3V36.3z"/>
		<path class="st3" d="M294.3,33L294.3,33l0.1-19.3h2.3v22.7h-2.9l-13.2-19.5h-0.1v19.5h-2.3V13.7h2.9L294.3,33z"/>
	</g>
</g>
</svg>
