<?xml version="1.0" encoding="utf-8"?>
<!-- Generator: Adobe Illustrator 21.1.0, SVG Export Plug-In . SVG Version: 6.00 Build 0)  -->
<svg version="1.1" id="Ebene_1" xmlns="http://www.w3.org/2000/svg" xmlns:xlink="http://www.w3.org/1999/xlink" x="0px" y="0px"
	 viewBox="0 0 50 50" style="enable-background:new 0 0 50 50;" xml:space="preserve">
<path d="M45.7,12.4c-1.5,0.7-3.2,1.1-4.8,1.3c1.8-1,3.1-2.6,3.7-4.6c-1.7,1-3.4,1.7-5.4,2c-1.5-1.7-3.7-2.6-6.2-2.6
	c-4.6,0-8.5,3.7-8.5,8.4c0,0.7,0.1,1.3,0.2,1.9c-7.2-0.3-13.3-3.6-17.5-8.7c-0.8,1.2-1.1,2.6-1.1,4.2c0,2.9,1.5,5.4,3.7,6.9
	c-1.4,0-2.6-0.4-3.9-1v0.1c0,1.1,0.2,2.1,0.6,3c1,2.6,3.4,4.6,6.2,5.2c-0.7,0.2-1.4,0.3-2.2,0.3c-0.6,0-1.1-0.1-1.5-0.1
	c1.1,3.3,4.2,5.7,7.9,5.8C14,36.7,10.3,38,6.3,38c-0.7,0-1.3,0-2-0.1c3.7,2.3,8.2,3.6,12.9,3.6c13.2,0,21.4-9.1,23.6-18.7
	c0.3-1.7,0.6-3.4,0.6-5.1c0-0.3,0-0.8,0-1.1C43,15.5,44.5,14.1,45.7,12.4L45.7,12.4z"/>
</svg>
