<?xml version="1.0" encoding="utf-8"?>
<!-- Generator: Adobe Illustrator 21.1.0, SVG Export Plug-In . SVG Version: 6.00 Build 0)  -->
<svg version="1.1" id="Ebene_1" xmlns="http://www.w3.org/2000/svg" xmlns:xlink="http://www.w3.org/1999/xlink" x="0px" y="0px"
	 viewBox="0 0 50 50" style="enable-background:new 0 0 50 50;" xml:space="preserve">
<style type="text/css">
	.st0{fill:#FFFFFF;}
</style>
<g>
	<path class="st0" d="M45.4,39.7l-9.9-9.9c-1.5,2.3-3.4,4.2-5.7,5.7l9.9,9.9c1.6,1.6,4.1,1.6,5.7,0C47,43.8,47,41.2,45.4,39.7z"/>
	<path class="st0" d="M35.8,19.6c0-8.9-7.2-16.2-16.2-16.2S3.4,10.7,3.4,19.6s7.2,16.2,16.2,16.2S35.8,28.5,35.8,19.6z M19.6,31.7
		c-6.7,0-12.1-5.4-12.1-12.1c0-6.7,5.4-12.1,12.1-12.1s12.1,5.4,12.1,12.1C31.7,26.3,26.3,31.7,19.6,31.7z"/>
	<path class="st0" d="M10.2,19.6h2.7c0-3.7,3-6.7,6.7-6.7v-2.7C14.4,10.2,10.2,14.4,10.2,19.6z"/>
</g>
</svg>
